C:\Users\israe\Dropbox\PhDWork\ExperimentalData\subject9\100\P9S100W02_filtered35.mot
nRows=15
nColumns=28

name C:\Users\israe\Dropbox\PhDWork\ExperimentalData\subject9\100\P9S100W02_filtered35.mot
datacolumns 28
datarows 15
range 0.6770000000 0.6910000000
endheader
time	ground_force_1_vx	ground_force_1_vy	ground_force_1_vz	ground_force_1_px	ground_force_1_py	ground_force_1_pz	ground_moment_1_mx	ground_moment_1_my	ground_moment_1_mz	ground_force_2_vx	ground_force_2_vy	ground_force_2_vz	ground_force_2_px	ground_force_2_py	ground_force_2_pz	ground_moment_2_mx	ground_moment_2_my	ground_moment_2_mz	ground_force_3_vx	ground_force_3_vy	ground_force_3_vz	ground_force_3_px	ground_force_3_py	ground_force_3_pz	ground_moment_3_mx	ground_moment_3_my	ground_moment_3_mz
        0.6770000000	        0.0000000000	        0.0000000000	       -0.0000000000	        0.1988394961	        0.0000558755	       -0.3004071324	       -0.0000000000	        0.0000000000	       -0.0000000000	       -0.0000000000	        0.0000000000	       -0.0000000000	        0.2029003516	       -0.0000795827	        0.4543649445	       -0.0000000000	       -0.0000000000	        0.0000000000	       32.5525432660	      798.0113988161	      -78.3012453265	        0.2076431971	        0.0000770316	        1.3583900146	      -58.7917390068	       -6.0535744644	      -61.8468292562	
        0.6780000000	        0.0000000000	        0.0000000000	       -0.0000000000	        0.1988394961	        0.0000558755	       -0.3004071324	       -0.0000000000	        0.0000000000	       -0.0000000000	       -0.0000000000	        0.0000000000	       -0.0000000000	        0.2029003516	       -0.0000795827	        0.4543649445	       -0.0000000000	       -0.0000000000	        0.0000000000	       32.7170678622	      798.9838402284	      -78.8151584661	        0.2076431971	        0.0000770316	        1.3583900146	      -58.2861176690	       -6.1400178967	      -61.9443505484	
        0.6790000000	        0.0000000000	        0.0000000000	       -0.0000000000	        0.1988394961	        0.0000558755	       -0.3004071324	       -0.0000000000	        0.0000000000	       -0.0000000000	       -0.0000000000	        0.0000000000	       -0.0000000000	        0.2029003516	       -0.0000795827	        0.4543649445	       -0.0000000000	       -0.0000000000	        0.0000000000	       32.8767744985	      799.9390879917	      -79.3405317551	        0.2076431971	        0.0000770316	        1.3583900146	      -57.7791800681	       -6.2274013198	      -62.0387187654	
        0.6800000000	        0.0000000000	        0.0000000000	       -0.0000000000	        0.1988394961	        0.0000558755	       -0.3004071324	       -0.0000000000	        0.0000000000	       -0.0000000000	       -0.0000000000	        0.0000000000	       -0.0000000000	        0.2029003516	       -0.0000795827	        0.4543649445	       -0.0000000000	       -0.0000000000	        0.0000000000	       33.0304000913	      800.8801387768	      -79.8756691783	        0.2076431971	        0.0000770316	        1.3583900146	      -57.2711657462	       -6.3156028868	      -62.1312293478	
        0.6810000000	        0.0000000000	        0.0000000000	       -0.0000000000	        0.1988394961	        0.0000558755	       -0.3004071324	       -0.0000000000	        0.0000000000	       -0.0000000000	       -0.0000000000	        0.0000000000	       -0.0000000000	        0.2029003516	       -0.0000795827	        0.4543649445	       -0.0000000000	       -0.0000000000	        0.0000000000	       33.1776819346	      801.8105548662	      -80.4184585079	        0.2076431971	        0.0000770316	        1.3583900146	      -56.7624241786	       -6.4044972402	      -62.2230874916	
        0.6820000000	        0.0000000000	        0.0000000000	       -0.0000000000	        0.1988394961	        0.0000558755	       -0.3004071324	       -0.0000000000	        0.0000000000	       -0.0000000000	       -0.0000000000	        0.0000000000	       -0.0000000000	        0.2029003516	       -0.0000795827	        0.4543649445	       -0.0000000000	       -0.0000000000	        0.0000000000	       33.3190593911	      802.7352094481	      -80.9664089839	        0.2076431971	        0.0000770316	        1.3583900146	      -56.2532324685	       -6.4939886068	      -62.3153197486	
        0.6830000000	        0.0000000000	        0.0000000000	        0.0000000000	        0.1988394961	        0.0000558755	       -0.3004071324	       -0.0000000000	        0.0000000000	       -0.0000000000	       -0.0000000000	        0.0000000000	       -0.0000000000	        0.2029003516	       -0.0000795827	        0.4543649445	       -0.0000000000	       -0.0000000000	        0.0000000000	       33.4552149872	      803.6604428522	      -81.5168053524	        0.2076431971	        0.0000770316	        1.3583900146	      -55.7434865402	       -6.5839374583	      -62.4085870560	
        0.6840000000	        0.0000000000	        0.0000000000	        0.0000000000	        0.1988394961	        0.0000558755	       -0.3004071324	       -0.0000000000	        0.0000000000	       -0.0000000000	       -0.0000000000	        0.0000000000	       -0.0000000000	        0.2029003516	       -0.0000795827	        0.4543649445	       -0.0000000000	       -0.0000000000	        0.0000000000	       33.5868070336	      804.5907556767	      -82.0666336995	        0.2076431971	        0.0000770316	        1.3583900146	      -55.2325594604	       -6.6740493678	      -62.5028936220	
        0.6850000000	        0.0000000000	        0.0000000000	        0.0000000000	        0.1988394961	        0.0000558755	       -0.3004071324	       -0.0000000000	        0.0000000000	       -0.0000000000	       -0.0000000000	        0.0000000000	       -0.0000000000	        0.2029003516	       -0.0000795827	        0.4543649445	       -0.0000000000	       -0.0000000000	        0.0000000000	       33.7144917586	      805.5253746266	      -82.6123009397	        0.2076431971	        0.0000770316	        1.3583900146	      -54.7194262423	       -6.7638913822	      -62.5975362239	
        0.6860000000	        0.0000000000	        0.0000000000	        0.0000000000	        0.1988394961	        0.0000558755	       -0.3004071324	       -0.0000000000	        0.0000000000	       -0.0000000000	       -0.0000000000	        0.0000000000	       -0.0000000000	        0.2029003516	       -0.0000795827	        0.4543649445	       -0.0000000000	       -0.0000000000	        0.0000000000	       33.8389783791	      806.4604945449	      -83.1499157344	        0.2076431971	        0.0000770316	        1.3583900146	      -54.2029439943	       -6.8530379732	      -62.6914486506	
        0.6870000000	        0.0000000000	        0.0000000000	        0.0000000000	        0.1988394961	        0.0000558755	       -0.3004071324	       -0.0000000000	        0.0000000000	       -0.0000000000	       -0.0000000000	        0.0000000000	       -0.0000000000	        0.2029003516	       -0.0000795827	        0.4543649445	       -0.0000000000	       -0.0000000000	        0.0000000000	       33.9611089058	      807.3935725092	      -83.6763373190	        0.2076431971	        0.0000770316	        1.3583900146	      -53.6822432546	       -6.9411778324	      -62.7837385542	
        0.6880000000	        0.0000000000	        0.0000000000	        0.0000000000	        0.1988394961	        0.0000558755	       -0.3004071324	       -0.0000000000	        0.0000000000	       -0.0000000000	       -0.0000000000	        0.0000000000	        0.0000000000	        0.2029003516	       -0.0000795827	        0.4543649445	       -0.0000000000	       -0.0000000000	        0.0000000000	       34.0819515091	      808.3236065012	      -84.1897474064	        0.2076431971	        0.0000770316	        1.3583900146	      -53.1571377333	       -7.0281012507	      -62.8740350052	
        0.6890000000	        0.0000000000	        0.0000000000	        0.0000000000	        0.1988394961	        0.0000558755	       -0.3004071324	        0.0000000000	        0.0000000000	        0.0000000000	       -0.0000000000	        0.0000000000	        0.0000000000	        0.2029003516	       -0.0000795827	        0.4543649445	       -0.0000000000	       -0.0000000000	        0.0000000000	       34.2029693730	      809.2492246252	      -84.6890577163	        0.2076431971	        0.0000770316	        1.3583900146	      -52.6281802431	       -7.1135494467	      -62.9623933479	
        0.6900000000	       -0.0000000000	        0.0000000000	        0.0000000000	        0.1988394961	        0.0000558755	       -0.3004071324	        0.0000000000	        0.0000000000	        0.0000000000	       -0.0000000000	        0.0000000000	        0.0000000000	        0.2029003516	       -0.0000795827	        0.4543649445	       -0.0000000000	       -0.0000000000	        0.0000000000	       34.3261326868	      810.1682159712	      -85.1733610550	        0.2076431971	        0.0000770316	        1.3583900146	      -52.0962515143	       -7.1970577141	      -63.0490429896	
        0.6910000000	       -0.0000000000	        0.0000000000	        0.0000000000	        0.1988394961	        0.0000558755	       -0.3004071324	        0.0000000000	        0.0000000000	        0.0000000000	       -0.0000000000	        0.0000000000	        0.0000000000	        0.2029003516	       -0.0000795827	        0.4543649445	       -0.0000000000	       -0.0000000000	        0.0000000000	       34.4535757891	      811.0785110401	      -85.6424623670	        0.2076431971	        0.0000770316	        1.3583900146	      -51.5621379375	       -7.2780329771	      -63.1342356948	
